<svg xmlns="http://www.w3.org/2000/svg" viewBox="0 0 193 192.94"><defs><style>.cls-1{fill:#f28d05;}.cls-2{fill:#95c121;}</style></defs><g id="Layer_2" data-name="Layer 2"><g id="Layer_1-2" data-name="Layer 1"><path class="cls-1" d="M165.87,38.42C165.65,49,162,58.63,157.2,67.8c-1.79,3.4-1.56,4.44,2.26,5.57,11.8,3.49,22.46,9.07,31.12,18.14,3.15,3.32,3.27,5.81.07,9.2-8.74,9.24-19.54,14.84-31.45,18.56-3,.94-3.79,1.75-2.09,4.9,5.91,11,9.64,22.56,9.36,35.28-.1,4.72-1.94,6.42-6.46,6.57-12.52.42-24-3.19-34.89-8.91-3.43-1.81-4.47-1.56-5.59,2.24-3.56,12-9.21,22.77-18.54,31.42-3,2.81-5.27,2.95-8.42.08-9.43-8.58-15-19.4-18.8-31.28-1.15-3.64-2-4.26-5.56-2.35-10.36,5.58-21.34,9.3-33.33,9.08-7.25-.12-7.57-.4-8-7.45a14.1,14.1,0,0,1,.57-6.41,295.28,295.28,0,0,1,30.11-36.28c3.33.71,5.86,3.52,9.43,3.79.15-2,.29-3.85.42-5.67,1,7,6.15,9.61,12.21,11.25a15,15,0,0,1-4.34.4c-1.84-.06-2.21.64-1.73,2.42,2.45,8.94,5.69,10.72,14.34,7.71,1.1-.38,2.19-.77,3.24-1.25.39-.17.66-.6,1-.9l-2.42-3.26c4.77,2.58,9,1.53,13.27-.73l.64.64c-.9,1.14-1.81,2.27-2.74,3.44,11.94,6,14,5.34,19-6.44a7.11,7.11,0,0,0,.26-1.43c-2.18-1.14-4.47.48-8-.95,8.22-.77,12.1-5.06,13.51-11.9.52,7.35.52,7.35,6.78,4,1.46-.78,2.87-1.66,4.34-2.43a2.43,2.43,0,0,0,1.4-3.24c-1.2-3.7-1.86-7.59-4-11.06l-3.63,3L130,103c2.59-4.44,2.79-8.87-.06-13.29l.59-.61c1.64.31,1.91,2.72,4.19,2.61.66-2,1.34-4,2-6.08,2.21-7,2.2-7-4.47-10.39-6.09-3.13-6.09-3.13-6.72,4.13-1.3-7-5.31-11.12-13.44-11.68,3.53-1.89,6.1.31,8.32-1.29l4.69-2.23c.46,1.26.08,2.73,2.22,3.26,12.1,3,14.7.63,12.4-11.78-.12-.65-.14-1.31-.21-2,2.11-.15,3.57-1.62,5.25-2.61C151.82,46.92,158.84,42.66,165.87,38.42Zm-9.12,57.92c.07-1.53-7.57-10.45-9.23-10.85-1.3-.32-1.67.75-2.3,1.44-8.2,8.93-8.2,9.44-.09,18.55a8.19,8.19,0,0,0,1,1.12,2.1,2.1,0,0,0,1.25.48C148.85,107,156.69,97.91,156.75,96.34Zm-95.14,44c2.12,0,3.61,0,5.1,0s2.44-.46,2.14-2.34c-.53-3.44-.59-7-1.34-10.34-1-4.65-5.23-1.91-7.88-2.74-2-.64-4.74-1.77-6.88.42-.09.1-.07.32-.08.49-.33,4.31-.77,8.91,1.25,12.67C55.42,141.28,59.37,139.93,61.61,140.32ZM96.8,156.6c1.62-.08,10.53-8,10.65-9.49.08-1-.75-1.35-1.33-1.9-8.53-8.13-10.24-8.14-18.94,0-.57.54-1.36,1.17-1.43,1.83C85.57,148.64,95,156.68,96.8,156.6Zm43.65-25.25c.19-7.53.19-7.53-6.76-6.78-1.82.2-3.63.44-5.45.65-1,.12-2.37-.07-2.54,1.08-.59,4.11-1,8.26-1.36,12.39a1.26,1.26,0,0,0,1.15,1.39c4.34.43,8.86.81,12.82-.94C141.61,137.69,139.82,133.78,140.45,131.35Z"/><path class="cls-2" d="M165.87,38.42c-7,4.24-14.05,8.5-21.11,12.7-1.68,1-3.14,2.46-5.25,2.61-4.77-1.76-10.34-2.9-14.37-.62-2.89,1.63.32,6.93,0,10.61,0,.16,0,.32-.06.49l-4.69,2.23c-1.65-3.22-3.32-6.44-5-9.67-.8-1.56-1.66-2.81-3.8-2.07-3.65,1.26-7.57,1.81-10.87,3.93.48,1.74,2.5,2,2.6,3.74l-.16.13c-4.45-1.72-8.91-2.9-13.7-.51l2.93-3.51c-2-.75-3.67-1.5-5.4-2-9.69-2.64-7.12-3.85-12.27,5.06-2,3.55-3,6.36,3.41,6.59-7.15.26-8.88,5.27-11,10.12V72.11c-4,2.1-7.52,3.91-11,5.77-.87.47-2.1,1.25-1.52,2.25,2.19,3.76-.22,10.09,6.31,11.47.27.06.69,1,.57,1.13-2.65,3.66.81,6.84,1.06,10.93l-4.1-3.3c-1.09,3.35-1.9,6.4-3.09,9.3s-.55,5,2.17,6.5a294.46,294.46,0,0,0-30.12,36.28c.25-9.91,3.9-18.85,8.36-27.43,1.79-3.45,1.56-4.5-2.28-5.64-11.8-3.51-22.44-9.11-31.11-18.17-3.23-3.36-3.16-5.81,0-9.15,8.59-9.14,19.26-14.71,31-18.38,3.68-1.15,4.18-2.15,2.32-5.61-5.83-10.83-9.6-22.3-9.1-34.83.15-3.8.83-5.33,5.89-5.83,13.18-1.31,24.59,2.86,35.77,8.52,3.59,1.83,4.21.69,5.17-2.45,3.57-11.6,9-22.14,17.82-30.78,3.56-3.5,6.26-3.64,9.92-.11,9,8.71,14.5,19.39,18.2,31.12,1,3,1.69,3.85,4.91,2.1,10.2-5.5,21-9.3,32.79-9.32,8.48,0,9.08.6,9.08,9A29.79,29.79,0,0,1,165.87,38.42Zm-58.5,7.3c-.25-.42-.43-.69-.58-1-4.55-8.62-11.24-9.67-18.14-2.84-.7.7-1.35,1.46-2.07,2.14-1.35,1.28-1.35,2.14.17,3.55,9,8.32,9,8.37,18.44.5a18.81,18.81,0,0,0,1.55-1.25A4.63,4.63,0,0,0,107.37,45.72ZM45.85,107.61c2.44-1.58,3.42-4.45,5.5-6.21,4-3.4,3.6-6.09,0-9.93-6.4-6.88-6.15-7.2-12.37.68-1.31,1.66-4,3.19-2.15,5.93A39.69,39.69,0,0,0,45.85,107.61Zm6.56-45.74c-.12,7-.12,7,6.1,6.4,2-.19,4-.49,5.94-.67,1.52-.14,3.07-.09,3-2.29,0-4.18,2-8.32.25-12.54,0-.09-.29-.14-.45-.15-4.32-.31-8.95-1-12.74,1.07C51.59,55.28,52.78,59.34,52.41,61.87Z"/><path class="cls-2" d="M103.38,62.37l.54.51a2,2,0,0,1-.34.17,4.62,4.62,0,0,1-.35-.55Z"/><path class="cls-1" d="M130,89.75l-.39-1,1,.43Z"/><path class="cls-1" d="M130.52,103.55l-.9.45.4-1Z"/><path class="cls-1" d="M102.94,129.92l1.07-.35-.43,1Z"/></g></g></svg>