<svg xmlns="http://www.w3.org/2000/svg" width="43" height="43.002" viewBox="0 0 43 43.002">
  <path id="Path_37" data-name="Path 37" d="M42.66,41.323h-4.04l-1.535-2.744V31.092a3.989,3.989,0,0,0-2.82-3.827l-6.443-2V18.443a3.153,3.153,0,0,0-.516-1.732,4.66,4.66,0,0,0-1.1-9.049V4.2A4.209,4.209,0,0,0,22,0a.84.84,0,0,0-.84.84v6.7H21.15a2.734,2.734,0,0,0-2.783,2.684,2.737,2.737,0,0,0,2.684,2.783H21.1a11.254,11.254,0,0,1-1.2,3.981,3.168,3.168,0,0,0-.353,1.452v7.224l-2.023,3.646L6.682,36.128a3.5,3.5,0,0,0-1.647,2.981v2.214H1.34a.84.84,0,0,0,0,1.68H42.66a.84.84,0,1,0,0-1.68ZM28.772,12.3a2.986,2.986,0,0,1-2.566,2.953V9.352A2.986,2.986,0,0,1,28.772,12.3ZM22.841,1.823A2.529,2.529,0,0,1,24.526,4.2V16.234a.839.839,0,0,0,.586.8,1.473,1.473,0,0,1,1.03,1.409v6.6H21.226v-6.6a1.463,1.463,0,0,1,.164-.679,12.848,12.848,0,0,0,1.451-5.888Zm-2.5,9.184A1.054,1.054,0,0,1,21.1,9.222h.062v2.111h-.08A1.048,1.048,0,0,1,20.341,11.008ZM13.205,37.67a.84.84,0,0,0-1.124-.384L8.36,39.114a.842.842,0,0,0-.156.1l-1.489,1.2v-1.3a1.832,1.832,0,0,1,.861-1.559L18.6,30.62a.84.84,0,0,0,.287-.3l1.994-3.592h4.533l-2.426,3.642a10.37,10.37,0,0,1-4.054,3.554l-1.739.854a.84.84,0,1,0,.741,1.508l1.739-.854A12.054,12.054,0,0,0,24.384,31.3l.659-.99,6.868,2.53V40.6a2.392,2.392,0,0,0,.111.721H8.261l.923-.742,3.638-1.787A.84.84,0,0,0,13.205,37.67Zm21.107,3.653a.722.722,0,0,1-.721-.721v-8.35a.84.84,0,0,0-.55-.788L26,28.87l.914-1.372.417-.626,6.435,2A2.317,2.317,0,0,1,35.4,31.092V38.8a.842.842,0,0,0,.107.41l1.183,2.115Zm0,0" transform="translate(-0.5)"/>
</svg>
